:SAMPLES-PER-SECOND 30
:FULLY-SPECIFIED
:DEGREES
79
root  2.50473 39.458 4.81951 5.29094 -66.0736 -7.76063
RightUpLeg  -25.8225 -0.67818 1.2242
RightLeg  48.8754 -8.39021 -10.5205
RightFoot  -0.0317594 -1.79444 18.1165
RightToes  5.82063e-011 0 -3.6325e-017
Spine  26.8851 0.576428 0.658918
Spine1  -1.00653 -0.313131 6.29862
HEad  -20.0674 -13.1612 0.754583
LeftShoulder1  1.79716 -5.59026 -12.7195
LeftArm  6.9693 9.10475 -39.1434
LeftForeArm  43.7355 -72.5105 -32.4645
LeftHand  -1.17312 0.665816 28.4601
RightShoulder  1.59162 3.16104 17.3013
RightArm  -15.3279 -15.6726 42.6767
RightForeArm  21.4169 63.9979 21.8585
RightHand  -1.41995 2.22175 -21.6267
LeftUpLeg  -24.506 -3.54931 2.86028
LeftLeg  50.385 6.387 8.74478
LeftFoot  5.47576 2.56831 -17.4928
LeftToes  3.99265e-010 -1.33173e-010 6.75004e-011
80
root  2.46044 39.2074 5.10142 4.08225 -63.6954 -5.06526
RightUpLeg  -29.1069 -0.028278 1.92478
RightLeg  47.0171 -0.581023 -1.00891
RightFoot  -1.04608 -2.55985 27.4766
RightToes  5.82063e-011 0 -3.6325e-017
Spine  28.4303 0.595186 -1.20846
Spine1  -3.39385 -0.85633 8.85599
HEad  -22.3181 -13.7425 -0.339175
LeftShoulder1  1.59319 -4.87609 -11.8885
LeftArm  -3.66346 15.7029 -35.1008
LeftForeArm  55.9064 -77.888 -54.6485
LeftHand  -1.20095 1.37355 34.1808
RightShoulder  1.30566 2.22915 16.1143
RightArm  -24.6579 -21.3781 38.7707
RightForeArm  24.7753 73.325 38.8847
RightHand  -1.89772 3.59822 -24.357
LeftUpLeg  -29.4122 -4.61125 3.50077
LeftLeg  52.7635 9.78537 13.9208
LeftFoot  4.35581 2.19954 -16.0412
LeftToes  3.99265e-010 -1.33173e-010 6.75004e-011
81
root  2.23302 38.6331 5.52075 3.48413 -61.442 -2.74538
RightUpLeg  -31.6207 -1.06632 3.26546
RightLeg  45.5162 2.87142 2.86461
RightFoot  1.73683 -3.3004 28.6518
RightToes  5.82063e-011 0 -3.6325e-017
Spine  29.1985 0.3852 -3.01862
Spine1  -5.84566 -1.5051 11.4578
HEad  -24.4093 -13.9142 -1.12428
LeftShoulder1  1.28759 -3.2445 -11.9782
LeftArm  -15.0927 23.8707 -32.726
LeftForeArm  51.2213 -77.7308 -57.5504
LeftHand  -0.848444 2.91638 39.0268
RightShoulder  1.13696 1.6126 15.5271
RightArm  -33.8382 -26.7126 35.8796
RightForeArm  20.6807 75.318 49.8457
RightHand  -2.54286 4.33829 -29.9358
LeftUpLeg  -32.5593 -6.69597 4.18592
LeftLeg  51.7083 13.9119 18.5497
LeftFoot  2.6684 1.86456 -15.2319
LeftToes  3.99265e-010 -1.33173e-010 6.75004e-011
82
root  1.89199 37.8687 6.07714 2.18159 -59.7471 -0.707999
RightUpLeg  -32.0432 -2.48138 4.96472
RightLeg  45.7897 0.413925 0.110636
RightFoot  0.701151 -2.08372 18.767
RightToes  5.82063e-011 0 -3.6325e-017
Spine  29.5246 -0.0133711 -3.33895
Spine1  -7.034 -2.14104 12.7468
HEad  -25.386 -14.4882 -1.55286
LeftShoulder1  1.01338 -1.58839 -12.8725
LeftArm  -25.2033 30.2142 -31.7518
LeftForeArm  24.2265 -72.045 -36.3457
LeftHand  -0.195745 4.83567 43.2726
RightShoulder  1.14433 1.46791 16.3875
RightArm  -41.1463 -31.2896 33.6088
RightForeArm  -0.870534 71.8162 40.0434
RightHand  -3.07011 4.20411 -36.2643
LeftUpLeg  -32.8285 -7.51344 3.94372
LeftLeg  49.4795 14.6865 18.0785
LeftFoot  0.411901 1.7317 -16.8639
LeftToes  3.99265e-010 -1.33173e-010 6.75004e-011
83
root  1.48553 36.832 6.70816 -0.439792 -58.8066 1.51214
RightUpLeg  -31.617 -1.74476 5.45463
RightLeg  49.9538 -4.28751 -5.8906
RightFoot  -7.0748 -0.31274 7.71598
RightToes  5.82063e-011 0 -3.6325e-017
Spine  29.4126 -0.348151 -2.2872
Spine1  -7.22337 -2.22771 11.4597
HEad  -24.75 -15.9331 -1.7627
LeftShoulder1  1.04294 -1.34266 -14.586
LeftArm  -32.8252 33.3883 -31.2362
LeftForeArm  1.21455 -59.8495 -19.8394
LeftHand  0.693813 6.90217 48.0492
RightShoulder  1.30231 1.70235 18.5487
RightArm  -44.5366 -34.8859 31.2586
RightForeArm  -21.7078 62.7997 25.0427
RightHand  -3.24902 3.50572 -40.9421
LeftUpLeg  -32.2676 -6.39906 2.24711
LeftLeg  51.3379 11.1973 14.9682
LeftFoot  -5.42892 1.03126 -19.1218
LeftToes  3.99265e-010 -1.33173e-010 6.75004e-011
84
root  1.05167 35.4903 7.43156 -3.80945 -58.393 3.47958
RightUpLeg  -31.9718 1.26122 4.31211
RightLeg  58.3913 -5.97223 -10.7205
RightFoot  -15.3486 0.152318 6.17964
RightToes  5.82063e-011 0 -3.6325e-017
Spine  28.7829 -0.633635 -0.311637
Spine1  -6.50408 -1.74265 8.28241
HEad  -23.3903 -17.8218 -1.67443
LeftShoulder1  1.42758 -2.53423 -16.929
LeftArm  -37.5614 34.1051 -30.9861
LeftForeArm  -14.2635 -44.9667 -11.9783
LeftHand  1.60433 8.69883 51.2656
RightShoulder  1.56158 2.27709 20.7123
RightArm  -44.0583 -36.3689 29.7979
RightForeArm  -33.4058 49.3995 15.1206
RightHand  -3.08401 2.42194 -43.9418
LeftUpLeg  -32.3632 -4.41317 -0.0433718
LeftLeg  58.4696 7.22959 13.096
LeftFoot  -13.6763 -0.28355 -18.5698
LeftToes  3.99265e-010 -1.33173e-010 6.75004e-011
85
root  0.599806 34.0806 8.23859 -8.41237 -57.7923 5.33665
RightUpLeg  -32.1827 3.68029 2.47384
RightLeg  68.3508 -4.18294 -12.1521
RightFoot  -19.3091 0.565564 10.1137
RightToes  5.82063e-011 0 -3.6325e-017
Spine  27.6161 -0.985147 1.5837
Spine1  -3.87616 -1.42391 5.12925
HEad  -22.0046 -19.6602 -1.50154
LeftShoulder1  1.91693 -3.8593 -19.5562
LeftArm  -38.9758 32.9417 -32.1108
LeftForeArm  -24.8467 -31.8595 -8.16624
LeftHand  2.30353 10.1565 51.303
RightShoulder  1.82554 3.01611 21.7715
RightArm  -42.1902 -34.8338 30.9223
RightForeArm  -40.1893 35.1835 9.72308
RightHand  -2.57114 0.968936 -44.8355
LeftUpLeg  -31.6202 -2.61524 -2.59709
LeftLeg  66.6265 4.95749 13.2183
LeftFoot  -20.1472 -1.12648 -16.0528
LeftToes  3.99265e-010 -1.33173e-010 6.75004e-011
86
root  0.130922 32.9181 9.04977 -14.9232 -56.4727 7.91349
RightUpLeg  -30.5068 4.3986 0.570909
RightLeg  76.9328 -2.40058 -13.5103
RightFoot  -19.7445 0.833698 13.1634
RightToes  5.82063e-011 0 -3.6325e-017
Spine  25.9494 -1.30191 2.44833
Spine1  0.246153 -1.52588 2.9072
HEad  -19.7008 -21.6414 -1.80005
LeftShoulder1  2.31399 -4.62654 -22.1519
LeftArm  -36.3307 29.9584 -34.635
LeftForeArm  -31.4344 -23.2632 -6.36359
LeftHand  2.67522 11.2656 48.7672
RightShoulder  1.98686 3.4924 22.1856
RightArm  -40.4316 -31.0315 34.2431
RightForeArm  -44.078 24.3263 6.82784
RightHand  -1.97881 -0.286036 -43.2328
LeftUpLeg  -28.4954 -0.900789 -5.6315
LeftLeg  72.4379 3.45815 13.1975
LeftFoot  -23.6057 -1.36925 -13.9677
LeftToes  3.99265e-010 -1.33173e-010 6.75004e-011
87
root  -0.310087 32.0586 9.79112 -21.8011 -54.7409 10.9605
RightUpLeg  -27.586 4.9628 -1.04835
RightLeg  83.2758 -1.19156 -17.2361
RightFoot  -19.3218 0.927306 15.0968
RightToes  5.82063e-011 0 -3.6325e-017
Spine  24.1776 -1.4197 2.84653
Spine1  3.87711 -1.49477 0.817507
HEad  -15.9629 -24.1408 -2.53227
LeftShoulder1  2.59658 -5.04538 -24.1699
LeftArm  -30.0337 25.56 -37.3381
LeftForeArm  -34.5276 -19.5527 -6.07021
LeftHand  2.44633 11.4592 43.8273
RightShoulder  2.04114 3.49883 22.9846
RightArm  -37.4567 -26.6735 38.2576
RightForeArm  -44.274 19.503 5.44014
RightHand  -1.78372 -0.581875 -41.5657
LeftUpLeg  -24.2867 1.40625 -8.4691
LeftLeg  76.3269 2.10181 11.3894
LeftFoot  -25.8135 -1.46516 -12.7107
LeftToes  3.99265e-010 -1.33173e-010 6.75004e-011
88
root  -0.647246 31.4106 10.3927 -27.3357 -52.9728 13.6784
RightUpLeg  -24.9849 6.27182 -2.3303
RightLeg  87.6997 0.152419 -21.0893
RightFoot  -18.6915 1.00024 17.4641
RightToes  5.82063e-011 0 -3.6325e-017
Spine  22.5083 -1.46647 3.60553
Spine1  6.38285 -0.993288 -2.00301
HEad  -12.3418 -27.0488 -3.04993
LeftShoulder1  2.71892 -5.26339 -24.8389
LeftArm  -20.9765 20.1262 -39.9428
LeftForeArm  -35.5474 -20.3723 -6.66346
LeftHand  1.52844 10.1744 35.3774
RightShoulder  2.06925 3.40893 23.8121
RightArm  -32.8409 -22.3929 42.1436
RightForeArm  -40.2149 20.0561 5.9973
RightHand  -1.8856 -0.178379 -40.5987
LeftUpLeg  -21.1549 4.18477 -10.2083
LeftLeg  79.755 0.879911 7.96035
LeftFoot  -27.0603 -1.46087 -11.7169
LeftToes  3.99265e-010 -1.33173e-010 6.75004e-011
89
root  -0.834867 30.9526 10.8099 -31.1134 -50.992 15.3158
RightUpLeg  -22.9662 7.42609 -3.2948
RightLeg  90.574 1.41047 -23.6611
RightFoot  -17.2492 0.904832 19.6419
RightToes  5.82063e-011 0 -3.6325e-017
Spine  21.0836 -1.62476 4.50877
Spine1  8.73453 -0.485181 -4.58513
HEad  -10.1006 -30.0112 -3.3851
LeftShoulder1  2.66189 -5.29535 -24.0364
LeftArm  -10.1998 13.8088 -42.5926
LeftForeArm  -35.1753 -25.4787 -6.95457
LeftHand  0.368137 7.12335 23.9379
RightShoulder  2.08095 3.56652 23.2894
RightArm  -25.0575 -17.5217 45.31
RightForeArm  -36.4577 23.809 6.77025
RightHand  -1.98054 0.404176 -38.4951
LeftUpLeg  -19.3328 6.54335 -10.7356
LeftLeg  82.7511 0.0330461 3.49657
LeftFoot  -26.3248 -1.27232 -10.8417
LeftToes  3.99265e-010 -1.33173e-010 6.75004e-011
